<svg id="Layer_1" enable-background="new 0 0 256 256" height="512" viewBox="0 0 256 256" width="512" xmlns="http://www.w3.org/2000/svg"><g><g fill="#846f75"><path d="m208.308 145.013c-1.381 0-2.5 1.119-2.5 2.5v76.878h-12.17v-56.862c0-3.006-2.446-5.452-5.452-5.452h-26.206c-3.006 0-5.452 2.446-5.452 5.452v56.862h-15.013v-57.039c0-2.909-2.367-5.276-5.276-5.276h-67.287c-2.909 0-5.276 2.367-5.276 5.276v57.039h-11.24v-76.878c0-1.381-1.119-2.5-2.5-2.5s-2.5 1.119-2.5 2.5v79.378c0 1.381 1.119 2.5 2.5 2.5h158.372c1.381 0 2.5-1.119 2.5-2.5v-79.378c0-1.381-1.12-2.5-2.5-2.5zm-19.67 55.5h-2.622v-7.167h2.622zm-86.043-24.5c2.298 0 4.167 1.869 4.167 4.167v4.167h-8.333v-4.167c0-2.298 1.869-4.167 4.166-4.167zm-22.307 37.834h6.167v10.544h-6.167zm44.615 10.544h-6.167v-10.544h6.167zm4.999 0v-12.779l3.279-15.357c.288-1.35-.573-2.679-1.923-2.967-1.354-.29-2.68.571-2.967 1.923l-2.911 13.635h-9.145c-1.381 0-2.5 1.119-2.5 2.5v13.044h-8.641v-22.378h8.141c1.381 0 2.5-1.119 2.5-2.5s-1.119-2.5-2.5-2.5h-21.28c-1.381 0-2.5 1.119-2.5 2.5s1.119 2.5 2.5 2.5h8.14v22.378h-8.64v-13.044c0-1.381-1.119-2.5-2.5-2.5h-9.145l-2.91-13.634c-.288-1.35-1.616-2.212-2.967-1.923-1.35.288-2.211 1.617-1.923 2.967l3.278 15.354v12.781h-6.612v-57.039c0-.152.124-.276.276-.276h31.144v4.292c-3.841 1.092-6.667 4.624-6.667 8.812v6.667c0 1.381 1.119 2.5 2.5 2.5h13.333c1.381 0 2.5-1.119 2.5-2.5v-6.667c0-4.187-2.825-7.72-6.667-8.812v-4.292h31.144c.152 0 .276.124.276.276v57.039zm31.626 0v-56.862c0-.25.203-.452.452-.452h26.205c.249 0 .452.203.452.452v20.818h-5.122c-1.381 0-2.5 1.119-2.5 2.5v12.167c0 1.381 1.119 2.5 2.5 2.5h5.122v18.878h-27.109z"/><path d="m41.615 100.799c.026.01.053.019.079.028 1.258.419 2.675-.265 3.133-1.504l6.293-16.991c.541-1.46 1.951-2.442 3.509-2.442h41.809c1.734 4.403 6.021 7.533 11.033 7.533h41.089c5.012 0 9.298-3.129 11.033-7.533h41.809c1.558 0 2.968.981 3.509 2.442 0 0 6.293 16.991 6.293 16.991.47 1.267 1.921 1.944 3.197 1.482 1.287-.466 1.967-1.937 1.493-3.218l-6.294-16.992c-1.264-3.413-4.559-5.705-8.197-5.705h-40.979v-36.419c0-6.541-5.321-11.862-11.862-11.862h-41.089c-6.541 0-11.862 5.321-11.862 11.862v36.419h-40.982c-3.639 0-6.934 2.293-8.197 5.706 0 0-6.293 16.991-6.293 16.991-.472 1.274.207 2.74 1.476 3.212zm58.993-62.328c0-3.784 3.079-6.862 6.862-6.862h41.089c3.784 0 6.862 3.079 6.862 6.862v37.089c0 3.784-3.078 6.862-6.862 6.862h-41.089c-3.784 0-6.862-3.079-6.862-6.862z"/><path d="m213.548 106.68h-171.095c-1.381 0-2.5 1.119-2.5 2.5v16.83c0 8.117 6.604 14.721 14.721 14.721 5.085 0 9.575-2.593 12.221-6.525 2.646 3.932 7.136 6.525 12.221 6.525s9.575-2.593 12.221-6.525c2.646 3.932 7.135 6.525 12.221 6.525 5.085 0 9.575-2.593 12.221-6.525 2.646 3.932 7.136 6.525 12.221 6.525s9.575-2.593 12.221-6.525c2.646 3.932 7.136 6.525 12.222 6.525s9.575-2.593 12.221-6.525c2.646 3.932 7.136 6.525 12.222 6.525 5.085 0 9.575-2.593 12.221-6.525 2.646 3.932 7.135 6.525 12.221 6.525 8.117 0 14.722-6.604 14.722-14.721v-16.83c-.002-1.381-1.121-2.5-2.502-2.5zm-158.875 29.051c-5.36 0-9.721-4.361-9.721-9.721v-14.33h19.442v14.33c.001 5.361-4.36 9.721-9.721 9.721zm24.443 0c-5.36 0-9.721-4.361-9.721-9.721v-14.33h19.442v14.33c0 5.361-4.361 9.721-9.721 9.721zm24.442 0c-5.36 0-9.721-4.361-9.721-9.721v-14.33h19.442v14.33c0 5.361-4.361 9.721-9.721 9.721zm24.442 0c-5.36 0-9.721-4.361-9.721-9.721v-14.33h19.442v14.33c0 5.361-4.361 9.721-9.721 9.721zm24.442 0c-5.36 0-9.722-4.361-9.722-9.721v-14.33h19.442v14.33c.001 5.361-4.359 9.721-9.72 9.721zm24.443 0c-5.36 0-9.722-4.361-9.722-9.721v-14.33h19.442v14.33c0 5.361-4.36 9.721-9.72 9.721zm34.163-9.721c0 5.36-4.361 9.721-9.722 9.721s-9.721-4.361-9.721-9.721v-14.33h19.442v14.33z"/></g><path d="m134.658 46.594v-1.381c0-3.644-2.964-6.607-6.607-6.607s-6.607 2.964-6.607 6.607v1.382c-8.314 2.775-14.331 10.618-14.331 19.853 0 1.381 1.119 2.5 2.5 2.5h36.876c1.381 0 2.5-1.119 2.5-2.5 0-9.236-6.016-17.079-14.331-19.854zm-8.215-1.382c0-.886.721-1.607 1.607-1.607s1.607.721 1.607 1.607v.378c-.532-.041-1.065-.082-1.607-.082-.543 0-1.075.041-1.607.082zm-14.134 18.735c1.203-7.605 7.804-13.438 15.742-13.438s14.54 5.833 15.742 13.438z" fill="#ed9abc"/><path d="m148.873 76.301h-41.716c-1.381 0-2.5-1.119-2.5-2.5s1.119-2.5 2.5-2.5h41.716c1.381 0 2.5 1.119 2.5 2.5s-1.119 2.5-2.5 2.5z" fill="#ed9abc"/><path d="m182.064 185.619h-13.963c-1.381 0-2.5-1.119-2.5-2.5v-9.138c0-1.381 1.119-2.5 2.5-2.5h13.963c1.381 0 2.5 1.119 2.5 2.5v9.138c0 1.381-1.119 2.5-2.5 2.5zm-11.462-5h8.963v-4.138h-8.963z" fill="#ebe7f2"/></g></svg>